<?xml version="1.0" encoding="UTF-8"?>
<svg xmlns="http://www.w3.org/2000/svg" xmlns:xlink="http://www.w3.org/1999/xlink" width="375pt" height="374.999991pt" viewBox="0 0 375 374.999991" version="1.2">
<defs>
<clipPath id="clip1">
  <path d="M 0 0 L 370.5 0 L 370.5 370.5 L 0 370.5 Z M 0 0 "/>
</clipPath>
<clipPath id="clip2">
  <path d="M 17.503906 15.335938 L 357.253906 15.335938 L 357.253906 355.085938 L 17.503906 355.085938 Z M 17.503906 15.335938 "/>
</clipPath>
<clipPath id="clip3">
  <path d="M 97 39.386719 L 273 39.386719 L 273 331.136719 L 97 331.136719 Z M 97 39.386719 "/>
</clipPath>
<clipPath id="clip4">
  <path d="M 39.386719 188.8125 L 115.886719 188.8125 L 115.886719 261.5625 L 39.386719 261.5625 Z M 39.386719 188.8125 "/>
</clipPath>
<clipPath id="clip5">
  <path d="M 261.339844 188.8125 L 337.839844 188.8125 L 337.839844 261.5625 L 261.339844 261.5625 Z M 261.339844 188.8125 "/>
</clipPath>
</defs>
<g id="surface1">
<g clip-path="url(#clip1)" clip-rule="nonzero">
<path style=" stroke:none;fill-rule:nonzero;fill:rgb(32.939148%,32.939148%,32.939148%);fill-opacity:1;" d="M 359.039062 234.644531 C 354.339844 250.636719 347.171875 265.804688 338.269531 279.78125 C 330.921875 291.152344 322.566406 301.839844 313.179688 311.558594 C 311.964844 312.886719 310.609375 314.074219 309.320312 315.328125 C 308.011719 316.558594 306.738281 317.832031 305.398438 319.03125 L 301.328125 322.570312 L 299.292969 324.34375 L 297.183594 326.019531 L 292.96875 329.386719 C 291.539062 330.480469 290.066406 331.511719 288.621094 332.578125 C 285.761719 334.769531 282.722656 336.691406 279.746094 338.714844 C 279.316406 339.003906 278.863281 339.308594 278.394531 339.625 C 277.910156 339.914062 277.40625 340.21875 276.878906 340.535156 C 275.828125 341.164062 274.699219 341.839844 273.492188 342.558594 C 271.117188 344.050781 268.300781 345.457031 265.261719 347.074219 C 264.5 347.46875 263.734375 347.898438 262.925781 348.285156 C 262.113281 348.664062 261.285156 349.046875 260.441406 349.441406 C 258.75 350.21875 257 351.027344 255.195312 351.863281 C 251.492188 353.308594 247.632812 355.046875 243.425781 356.394531 C 226.804688 362.421875 206.066406 366.144531 185.25 366.234375 C 164.4375 366.144531 143.695312 362.421875 127.078125 356.394531 C 122.867188 355.046875 119.007812 353.308594 115.304688 351.863281 C 113.5 351.027344 111.75 350.21875 110.0625 349.441406 C 109.21875 349.046875 108.386719 348.664062 107.574219 348.285156 C 106.769531 347.902344 106.003906 347.46875 105.238281 347.074219 C 102.199219 345.460938 99.382812 344.050781 97.007812 342.558594 C 95.804688 341.839844 94.671875 341.164062 93.621094 340.535156 C 93.097656 340.21875 92.59375 339.917969 92.105469 339.625 C 91.636719 339.308594 91.1875 339.003906 90.757812 338.71875 C 79.449219 331.308594 68.828125 322.890625 59.171875 313.433594 C 48.984375 303.261719 40.082031 291.867188 32.230469 279.78125 C 23.328125 265.808594 16.160156 250.636719 11.460938 234.644531 C 6.570312 218.707031 4.308594 201.980469 4.164062 185.25 C 4.308594 168.519531 6.570312 151.792969 11.460938 135.855469 C 16.160156 119.863281 23.328125 104.695312 32.230469 90.71875 C 39.578125 79.347656 47.933594 68.660156 57.320312 58.941406 C 58.535156 57.613281 59.890625 56.425781 61.179688 55.171875 C 62.488281 53.941406 63.761719 52.667969 65.101562 51.46875 L 69.171875 47.929688 L 71.207031 46.15625 L 73.316406 44.480469 L 77.53125 41.113281 C 78.960938 40.019531 80.433594 38.988281 81.878906 37.921875 C 84.738281 35.730469 87.777344 33.808594 90.753906 31.785156 C 91.183594 31.496094 91.636719 31.191406 92.105469 30.875 C 92.589844 30.585938 93.09375 30.28125 93.621094 29.964844 C 94.671875 29.335938 95.800781 28.660156 97.007812 27.941406 C 99.382812 26.449219 102.199219 25.042969 105.238281 23.425781 C 106 23.03125 106.765625 22.601562 107.574219 22.214844 C 108.386719 21.835938 109.214844 21.453125 110.058594 21.058594 C 111.75 20.28125 113.5 19.472656 115.304688 18.636719 C 119.007812 17.191406 122.867188 15.453125 127.074219 14.105469 C 143.695312 8.078125 164.433594 4.355469 185.25 4.265625 C 206.0625 4.355469 226.804688 8.078125 243.421875 14.105469 C 247.632812 15.453125 251.492188 17.191406 255.195312 18.636719 C 257 19.472656 258.75 20.28125 260.4375 21.058594 C 261.28125 21.453125 262.113281 21.835938 262.925781 22.214844 C 263.730469 22.597656 264.496094 23.03125 265.261719 23.425781 C 268.300781 25.039062 271.117188 26.449219 273.492188 27.941406 C 274.695312 28.660156 275.828125 29.335938 276.878906 29.964844 C 277.402344 30.28125 277.90625 30.582031 278.394531 30.875 C 278.863281 31.191406 279.3125 31.496094 279.742188 31.78125 C 291.050781 39.191406 301.671875 47.609375 311.328125 57.066406 C 321.515625 67.238281 330.417969 78.632812 338.269531 90.71875 C 347.171875 104.691406 354.339844 119.863281 359.039062 135.855469 C 363.929688 151.792969 366.191406 168.519531 366.335938 185.25 C 366.191406 201.980469 363.929688 218.707031 359.039062 234.644531 Z M 370.5 185.128906 L 370.496094 185.113281 C 370.34375 168.03125 368.046875 150.941406 363.070312 134.644531 C 358.285156 118.296875 350.953125 102.78125 341.816406 88.527344 L 337.421875 81.925781 C 337.421875 81.925781 336.152344 80.148438 334.25 77.488281 C 332.414062 74.765625 329.609375 71.417969 326.929688 67.972656 C 324.042969 64.703125 321.273438 61.328125 318.941406 59.023438 C 316.679688 56.660156 315.171875 55.089844 315.171875 55.089844 C 315.171875 55.089844 314.789062 54.699219 314.101562 54.039062 C 313.417969 53.375 312.4375 52.425781 311.261719 51.292969 C 308.964844 48.953125 305.636719 46.136719 302.367188 43.246094 C 300.691406 41.855469 298.964844 40.519531 297.371094 39.238281 C 296.570312 38.601562 295.800781 37.988281 295.066406 37.402344 C 294.304688 36.855469 293.585938 36.335938 292.921875 35.859375 C 290.269531 33.941406 288.5 32.667969 288.5 32.667969 C 288.5 32.667969 288.117188 32.355469 287.492188 31.949219 C 286.875 31.539062 286.054688 30.988281 285.230469 30.4375 C 283.585938 29.335938 281.9375 28.234375 281.9375 28.234375 C 281.5 27.9375 281.039062 27.625 280.558594 27.300781 C 280.066406 27 279.546875 26.6875 279.011719 26.367188 C 277.9375 25.71875 276.78125 25.027344 275.550781 24.285156 C 273.121094 22.753906 270.242188 21.308594 267.136719 19.652344 C 266.355469 19.246094 265.570312 18.804688 264.742188 18.410156 C 263.914062 18.019531 263.066406 17.625 262.203125 17.222656 C 260.476562 16.425781 258.683594 15.59375 256.835938 14.738281 C 253.050781 13.25 249.101562 11.476562 244.792969 10.089844 C 227.785156 3.910156 206.546875 0.0820312 185.25 0 C 163.953125 0.0820312 142.714844 3.910156 125.707031 10.089844 C 121.398438 11.476562 117.449219 13.25 113.660156 14.738281 C 111.8125 15.59375 110.023438 16.425781 108.296875 17.226562 C 107.433594 17.628906 106.585938 18.023438 105.753906 18.410156 C 104.929688 18.804688 104.144531 19.246094 103.363281 19.652344 C 100.253906 21.308594 97.378906 22.753906 94.945312 24.285156 C 93.714844 25.027344 92.5625 25.71875 91.484375 26.367188 C 90.953125 26.6875 90.433594 27.003906 89.941406 27.300781 C 89.457031 27.628906 89 27.9375 88.558594 28.234375 C 88.558594 28.234375 86.914062 29.335938 85.269531 30.4375 C 84.445312 30.988281 83.621094 31.539062 83.007812 31.953125 C 82.382812 32.355469 82 32.667969 82 32.667969 C 82 32.667969 80.230469 33.941406 77.578125 35.859375 C 76.914062 36.335938 76.195312 36.855469 75.433594 37.402344 C 74.699219 37.988281 73.929688 38.601562 73.128906 39.238281 C 71.535156 40.519531 69.808594 41.855469 68.132812 43.246094 C 64.863281 46.136719 61.535156 48.953125 59.238281 51.292969 C 58.0625 52.425781 57.082031 53.375 56.398438 54.039062 C 55.710938 54.699219 55.328125 55.089844 55.328125 55.089844 C 55.328125 55.089844 53.820312 56.660156 51.558594 59.023438 C 49.226562 61.328125 46.457031 64.703125 43.570312 67.972656 C 40.890625 71.417969 38.082031 74.769531 36.25 77.488281 C 34.347656 80.152344 33.074219 81.925781 33.074219 81.925781 L 28.683594 88.527344 C 19.546875 102.78125 12.214844 118.296875 7.429688 134.644531 C 2.453125 150.941406 0.15625 168.03125 0.00390625 185.113281 L 0 185.128906 L 0 185.371094 L 0.00390625 185.386719 C 0.15625 202.46875 2.453125 219.558594 7.429688 235.855469 C 12.214844 252.203125 19.546875 267.71875 28.683594 281.972656 L 33.078125 288.574219 C 33.078125 288.574219 34.347656 290.351562 36.25 293.011719 C 38.085938 295.734375 40.890625 299.082031 43.570312 302.527344 C 46.457031 305.796875 49.226562 309.171875 51.558594 311.476562 C 53.820312 313.835938 55.328125 315.410156 55.328125 315.410156 C 55.328125 315.410156 55.710938 315.800781 56.398438 316.460938 C 57.082031 317.125 58.0625 318.074219 59.238281 319.207031 C 61.535156 321.546875 64.863281 324.363281 68.132812 327.253906 C 69.808594 328.644531 71.535156 329.980469 73.128906 331.261719 C 73.929688 331.898438 74.699219 332.511719 75.433594 333.097656 C 76.195312 333.644531 76.914062 334.164062 77.578125 334.640625 C 80.230469 336.558594 82 337.832031 82 337.832031 C 82 337.832031 82.382812 338.144531 83.007812 338.546875 C 83.625 338.960938 84.445312 339.511719 85.269531 340.0625 C 86.914062 341.164062 88.5625 342.265625 88.5625 342.265625 C 89 342.5625 89.460938 342.875 89.941406 343.199219 C 90.433594 343.5 90.953125 343.8125 91.488281 344.132812 C 92.5625 344.78125 93.71875 345.472656 94.949219 346.214844 C 97.378906 347.746094 100.257812 349.191406 103.363281 350.847656 C 104.144531 351.253906 104.929688 351.695312 105.757812 352.089844 C 106.585938 352.480469 107.433594 352.875 108.296875 353.277344 C 110.023438 354.074219 111.816406 354.90625 113.664062 355.761719 C 117.449219 357.25 121.398438 359.023438 125.707031 360.410156 C 142.714844 366.589844 163.953125 370.414062 185.25 370.5 C 206.546875 370.414062 227.785156 366.589844 244.792969 360.410156 C 249.101562 359.023438 253.050781 357.25 256.839844 355.761719 C 258.6875 354.90625 260.476562 354.074219 262.203125 353.273438 C 263.066406 352.871094 263.914062 352.476562 264.746094 352.089844 C 265.570312 351.695312 266.355469 351.253906 267.136719 350.847656 C 270.246094 349.191406 273.121094 347.746094 275.554688 346.214844 C 276.785156 345.472656 277.9375 344.78125 279.015625 344.132812 C 279.546875 343.8125 280.066406 343.496094 280.558594 343.199219 C 281.042969 342.871094 281.5 342.5625 281.941406 342.265625 C 281.941406 342.265625 283.585938 341.164062 285.230469 340.0625 C 286.054688 339.511719 286.878906 338.960938 287.492188 338.546875 C 288.117188 338.144531 288.5 337.832031 288.5 337.832031 C 288.5 337.832031 290.269531 336.558594 292.921875 334.640625 C 293.585938 334.164062 294.304688 333.644531 295.066406 333.097656 C 295.800781 332.511719 296.570312 331.898438 297.371094 331.261719 C 298.964844 329.980469 300.691406 328.644531 302.367188 327.253906 C 305.636719 324.363281 308.964844 321.546875 311.261719 319.207031 C 312.4375 318.074219 313.417969 317.125 314.101562 316.460938 C 314.789062 315.800781 315.171875 315.410156 315.171875 315.410156 C 315.171875 315.410156 316.679688 313.835938 318.941406 311.476562 C 321.273438 309.171875 324.042969 305.796875 326.929688 302.527344 C 329.609375 299.082031 332.417969 295.730469 334.25 293.011719 C 336.152344 290.347656 337.421875 288.574219 337.421875 288.574219 L 341.816406 281.972656 C 350.953125 267.71875 358.285156 252.203125 363.070312 235.855469 C 368.046875 219.558594 370.34375 202.46875 370.496094 185.386719 L 370.5 185.371094 L 370.5 185.128906 "/>
</g>
<g clip-path="url(#clip2)" clip-rule="nonzero">
<path style=" stroke:none;fill-rule:nonzero;fill:rgb(32.939148%,32.939148%,32.939148%);fill-opacity:1;" d="M 346.746094 230.507812 C 342.4375 245.171875 335.859375 259.082031 327.699219 271.894531 C 320.960938 282.324219 313.300781 292.125 304.691406 301.039062 C 303.578125 302.253906 302.335938 303.34375 301.152344 304.496094 C 299.953125 305.625 298.785156 306.789062 297.554688 307.890625 L 293.824219 311.136719 L 291.960938 312.761719 L 290.023438 314.296875 L 286.160156 317.386719 C 284.847656 318.386719 283.5 319.332031 282.171875 320.3125 C 279.550781 322.320312 276.761719 324.085938 274.03125 325.941406 C 273.636719 326.207031 273.222656 326.484375 272.792969 326.773438 C 272.347656 327.039062 271.886719 327.316406 271.402344 327.609375 C 270.441406 328.183594 269.402344 328.804688 268.300781 329.464844 C 266.117188 330.835938 263.539062 332.125 260.753906 333.605469 C 260.050781 333.964844 259.347656 334.359375 258.605469 334.714844 C 257.863281 335.0625 257.105469 335.414062 256.328125 335.773438 C 254.78125 336.488281 253.175781 337.230469 251.519531 337.996094 C 248.125 339.324219 244.585938 340.914062 240.726562 342.152344 C 225.484375 347.679688 206.46875 351.09375 187.378906 351.175781 C 168.292969 351.09375 149.273438 347.679688 134.035156 342.152344 C 130.171875 340.914062 126.636719 339.324219 123.238281 337.996094 C 121.585938 337.230469 119.980469 336.488281 118.433594 335.773438 C 117.65625 335.414062 116.898438 335.0625 116.152344 334.71875 C 115.414062 334.363281 114.710938 333.964844 114.007812 333.605469 C 111.222656 332.125 108.640625 330.835938 106.460938 329.464844 C 105.355469 328.804688 104.320312 328.183594 103.355469 327.609375 C 102.875 327.320312 102.414062 327.042969 101.96875 326.773438 C 101.535156 326.484375 101.121094 326.207031 100.730469 325.941406 C 90.359375 319.148438 80.621094 311.429688 71.765625 302.757812 C 62.425781 293.429688 54.261719 282.980469 47.0625 271.898438 C 38.898438 259.082031 32.320312 245.171875 28.015625 230.507812 C 23.53125 215.890625 21.457031 200.550781 21.324219 185.210938 C 21.457031 169.871094 23.53125 154.53125 28.015625 139.917969 C 32.320312 125.253906 38.898438 111.339844 47.058594 98.527344 C 53.796875 88.101562 61.457031 78.300781 70.066406 69.386719 C 71.179688 68.167969 72.425781 67.078125 73.605469 65.929688 C 74.808594 64.800781 75.976562 63.632812 77.203125 62.535156 L 80.933594 59.289062 L 82.800781 57.660156 L 84.738281 56.125 L 88.601562 53.035156 C 89.910156 52.035156 91.261719 51.089844 92.585938 50.109375 C 95.207031 48.101562 97.996094 46.339844 100.726562 44.484375 C 101.121094 44.21875 101.535156 43.941406 101.964844 43.648438 C 102.410156 43.382812 102.875 43.105469 103.355469 42.816406 C 104.320312 42.238281 105.355469 41.617188 106.460938 40.960938 C 108.640625 39.589844 111.222656 38.300781 114.007812 36.816406 C 114.707031 36.457031 115.410156 36.0625 116.152344 35.707031 C 116.898438 35.359375 117.65625 35.007812 118.429688 34.648438 C 119.980469 33.933594 121.585938 33.191406 123.238281 32.425781 C 126.632812 31.101562 130.171875 29.507812 134.03125 28.269531 C 149.273438 22.746094 168.292969 19.328125 187.378906 19.25 C 206.464844 19.328125 225.484375 22.746094 240.726562 28.269531 C 244.585938 29.507812 248.125 31.101562 251.519531 32.425781 C 253.175781 33.191406 254.777344 33.933594 256.328125 34.648438 C 257.101562 35.007812 257.863281 35.359375 258.605469 35.707031 C 259.347656 36.058594 260.050781 36.457031 260.75 36.816406 C 263.535156 38.296875 266.117188 39.589844 268.296875 40.957031 C 269.402344 41.617188 270.4375 42.238281 271.402344 42.816406 C 271.882812 43.105469 272.347656 43.382812 272.792969 43.648438 C 273.222656 43.9375 273.636719 44.21875 274.03125 44.480469 C 284.398438 51.277344 294.140625 58.996094 302.996094 67.664062 C 312.335938 76.996094 320.5 87.445312 327.699219 98.527344 C 335.859375 111.339844 342.4375 125.253906 346.746094 139.917969 C 351.230469 154.53125 353.304688 169.871094 353.4375 185.210938 C 353.304688 200.550781 351.230469 215.890625 346.746094 230.507812 Z M 357.253906 185.097656 L 357.25 185.085938 C 357.109375 169.421875 355.003906 153.75 350.441406 138.804688 C 346.050781 123.816406 339.332031 109.585938 330.949219 96.515625 L 326.921875 90.460938 C 326.921875 90.460938 325.757812 88.835938 324.011719 86.390625 C 322.332031 83.898438 319.757812 80.828125 317.300781 77.667969 C 314.652344 74.667969 312.113281 71.574219 309.976562 69.460938 C 307.902344 67.296875 306.519531 65.851562 306.519531 65.851562 C 306.519531 65.851562 306.167969 65.496094 305.539062 64.890625 C 304.910156 64.28125 304.011719 63.414062 302.933594 62.371094 C 300.828125 60.226562 297.773438 57.644531 294.777344 54.996094 C 293.238281 53.71875 291.65625 52.492188 290.195312 51.316406 C 289.460938 50.734375 288.753906 50.171875 288.082031 49.636719 C 287.382812 49.132812 286.726562 48.65625 286.117188 48.21875 C 283.683594 46.460938 282.0625 45.292969 282.0625 45.292969 C 282.0625 45.292969 281.707031 45.003906 281.136719 44.636719 C 280.570312 44.257812 279.816406 43.753906 279.0625 43.246094 C 277.554688 42.238281 276.042969 41.226562 276.042969 41.226562 C 275.640625 40.957031 275.21875 40.667969 274.78125 40.371094 C 274.324219 40.097656 273.851562 39.8125 273.359375 39.515625 C 272.375 38.921875 271.316406 38.285156 270.1875 37.609375 C 267.957031 36.203125 265.320312 34.875 262.46875 33.359375 C 261.753906 32.984375 261.035156 32.582031 260.277344 32.21875 C 259.515625 31.863281 258.738281 31.5 257.945312 31.132812 C 256.363281 30.398438 254.71875 29.636719 253.023438 28.851562 C 249.554688 27.488281 245.929688 25.859375 241.980469 24.585938 C 226.382812 18.921875 206.910156 15.414062 187.378906 15.335938 C 167.851562 15.414062 148.375 18.921875 132.777344 24.589844 C 128.828125 25.859375 125.207031 27.488281 121.734375 28.851562 C 120.039062 29.636719 118.398438 30.398438 116.8125 31.132812 C 116.019531 31.5 115.242188 31.863281 114.480469 32.21875 C 113.726562 32.582031 113.003906 32.984375 112.289062 33.359375 C 109.4375 34.875 106.800781 36.203125 104.570312 37.609375 C 103.441406 38.285156 102.382812 38.921875 101.398438 39.515625 C 100.90625 39.8125 100.433594 40.097656 99.980469 40.371094 C 99.539062 40.671875 99.117188 40.957031 98.714844 41.226562 C 98.714844 41.226562 97.207031 42.238281 95.695312 43.246094 C 94.941406 43.753906 94.1875 44.257812 93.621094 44.636719 C 93.050781 45.003906 92.699219 45.292969 92.699219 45.292969 C 92.699219 45.292969 91.074219 46.460938 88.644531 48.21875 C 88.035156 48.65625 87.375 49.132812 86.679688 49.636719 C 86.007812 50.171875 85.296875 50.734375 84.5625 51.316406 C 83.101562 52.492188 81.519531 53.71875 79.980469 54.996094 C 76.984375 57.644531 73.933594 60.226562 71.828125 62.371094 C 70.75 63.414062 69.851562 64.28125 69.222656 64.890625 C 68.589844 65.496094 68.242188 65.851562 68.242188 65.851562 C 68.242188 65.851562 66.859375 67.296875 64.78125 69.460938 C 62.648438 71.574219 60.109375 74.667969 57.460938 77.667969 C 55.003906 80.828125 52.425781 83.898438 50.746094 86.390625 C 49 88.835938 47.835938 90.464844 47.835938 90.464844 L 43.808594 96.515625 C 35.429688 109.585938 28.707031 123.816406 24.320312 138.804688 C 19.753906 153.75 17.648438 169.421875 17.507812 185.085938 L 17.507812 185.097656 L 17.503906 185.210938 L 17.507812 185.324219 L 17.507812 185.339844 C 17.648438 201 19.753906 216.675781 24.320312 231.617188 C 28.707031 246.609375 35.429688 260.835938 43.808594 273.90625 L 47.835938 279.960938 C 47.835938 279.960938 49.003906 281.589844 50.746094 284.03125 C 52.429688 286.523438 55.003906 289.597656 57.460938 292.753906 C 60.109375 295.753906 62.648438 298.851562 64.78125 300.960938 C 66.859375 303.125 68.242188 304.570312 68.242188 304.570312 C 68.242188 304.570312 68.589844 304.929688 69.222656 305.535156 C 69.851562 306.140625 70.75 307.011719 71.828125 308.050781 C 73.933594 310.195312 76.984375 312.777344 79.980469 315.429688 C 81.519531 316.707031 83.101562 317.929688 84.5625 319.105469 C 85.296875 319.6875 86.007812 320.253906 86.679688 320.789062 C 87.375 321.292969 88.035156 321.765625 88.644531 322.203125 C 91.074219 323.960938 92.699219 325.128906 92.699219 325.128906 C 92.699219 325.128906 93.050781 325.417969 93.621094 325.785156 C 94.1875 326.164062 94.941406 326.671875 95.695312 327.175781 C 97.207031 328.1875 98.714844 329.195312 98.714844 329.195312 C 99.117188 329.46875 99.539062 329.753906 99.980469 330.050781 C 100.433594 330.328125 100.90625 330.613281 101.398438 330.910156 C 102.382812 331.503906 103.445312 332.136719 104.570312 332.816406 C 106.800781 334.222656 109.441406 335.546875 112.289062 337.066406 C 113.007812 337.4375 113.726562 337.839844 114.484375 338.207031 C 115.246094 338.5625 116.023438 338.921875 116.8125 339.292969 C 118.398438 340.027344 120.039062 340.785156 121.734375 341.570312 C 125.207031 342.9375 128.828125 344.5625 132.78125 345.835938 C 148.375 351.5 167.851562 355.007812 187.378906 355.085938 C 206.910156 355.007812 226.382812 351.5 241.980469 345.835938 C 245.929688 344.5625 249.554688 342.933594 253.027344 341.570312 C 254.722656 340.785156 256.363281 340.027344 257.945312 339.289062 C 258.738281 338.921875 259.515625 338.558594 260.277344 338.207031 C 261.035156 337.839844 261.753906 337.4375 262.472656 337.066406 C 265.320312 335.546875 267.960938 334.222656 270.1875 332.816406 C 271.316406 332.136719 272.375 331.5 273.363281 330.910156 C 273.851562 330.613281 274.328125 330.324219 274.78125 330.050781 C 275.222656 329.753906 275.644531 329.46875 276.046875 329.195312 C 276.046875 329.195312 277.554688 328.1875 279.0625 327.175781 C 279.816406 326.671875 280.570312 326.164062 281.136719 325.785156 C 281.707031 325.417969 282.0625 325.128906 282.0625 325.128906 C 282.0625 325.128906 283.683594 323.960938 286.117188 322.203125 C 286.726562 321.765625 287.382812 321.292969 288.082031 320.789062 C 288.753906 320.253906 289.460938 319.6875 290.195312 319.105469 C 291.65625 317.929688 293.238281 316.707031 294.777344 315.429688 C 297.773438 312.777344 300.828125 310.195312 302.933594 308.050781 C 304.011719 307.011719 304.910156 306.140625 305.539062 305.535156 C 306.167969 304.929688 306.519531 304.570312 306.519531 304.570312 C 306.519531 304.570312 307.902344 303.125 309.976562 300.960938 C 312.113281 298.851562 314.652344 295.753906 317.300781 292.753906 C 319.757812 289.597656 322.332031 286.523438 324.011719 284.03125 C 325.757812 281.585938 326.921875 279.960938 326.921875 279.960938 L 330.949219 273.90625 C 339.332031 260.835938 346.050781 246.605469 350.441406 231.617188 C 355.003906 216.671875 357.109375 201 357.25 185.335938 L 357.253906 185.324219 L 357.253906 185.097656 "/>
</g>
<g clip-path="url(#clip3)" clip-rule="nonzero">
<path style=" stroke:none;fill-rule:nonzero;fill:rgb(32.939148%,32.939148%,32.939148%);fill-opacity:1;" d="M 185.261719 39.386719 C 156.40625 39.386719 132.746094 63.042969 132.746094 91.902344 C 132.746094 94.941406 133.046875 97.777344 133.476562 100.472656 C 112.777344 107.527344 97.738281 127.261719 97.738281 150.25 C 97.738281 168.402344 107.308594 184.570312 121.804688 194.015625 L 179.972656 327.671875 C 180.207031 328.175781 180.507812 328.636719 180.875 329.050781 C 181.242188 329.46875 181.660156 329.828125 182.125 330.125 C 182.59375 330.425781 183.097656 330.652344 183.628906 330.804688 C 184.160156 330.960938 184.707031 331.039062 185.261719 331.039062 C 185.816406 331.039062 186.359375 330.960938 186.894531 330.804688 C 187.425781 330.652344 187.925781 330.425781 188.394531 330.125 C 188.863281 329.828125 189.28125 329.46875 189.648438 329.050781 C 190.015625 328.636719 190.316406 328.175781 190.550781 327.671875 L 248.535156 194.378906 C 263.195312 185.101562 272.785156 168.863281 272.785156 150.25 C 272.785156 127.28125 257.714844 107.726562 237.046875 100.652344 C 237.464844 97.835938 237.777344 94.882812 237.777344 91.902344 C 237.777344 63.042969 214.117188 39.386719 185.261719 39.386719 Z M 185.261719 51.054688 C 207.753906 51.054688 226.105469 69.410156 226.105469 91.902344 C 226.105469 93.625 225.835938 95.757812 225.558594 97.917969 C 223.800781 97.738281 222.074219 97.738281 220.269531 97.738281 C 213.660156 97.738281 207.222656 99.007812 201.855469 101.019531 C 201.496094 101.15625 201.152344 101.328125 200.828125 101.53125 C 200.503906 101.738281 200.199219 101.972656 199.921875 102.238281 C 199.640625 102.503906 199.390625 102.792969 199.167969 103.105469 C 198.945312 103.417969 198.757812 103.753906 198.601562 104.105469 C 198.445312 104.453125 198.324219 104.816406 198.238281 105.191406 C 198.152344 105.570312 198.105469 105.949219 198.09375 106.332031 C 198.085938 106.71875 198.113281 107.097656 198.175781 107.476562 C 198.242188 107.859375 198.34375 108.226562 198.480469 108.585938 C 198.617188 108.945312 198.789062 109.289062 198.996094 109.613281 C 199.199219 109.9375 199.433594 110.242188 199.699219 110.519531 C 199.964844 110.796875 200.253906 111.050781 200.566406 111.273438 C 200.882812 111.492188 201.214844 111.683594 201.566406 111.839844 C 201.917969 111.996094 202.28125 112.117188 202.65625 112.203125 C 203.03125 112.289062 203.410156 112.335938 203.796875 112.34375 C 204.179688 112.355469 204.5625 112.328125 204.941406 112.261719 C 205.320312 112.199219 205.6875 112.097656 206.046875 111.960938 C 210.019531 110.46875 215.214844 109.40625 220.269531 109.40625 C 242.761719 109.40625 261.117188 127.761719 261.117188 150.25 C 261.117188 165.160156 253.535156 177.746094 241.789062 184.898438 C 241.386719 185.15625 241.019531 185.460938 240.695312 185.808594 C 236.597656 186.710938 215.183594 191.097656 185.261719 191.097656 C 157.898438 191.097656 137.640625 187.519531 131.105469 186.171875 C 131.046875 186.109375 130.984375 186.050781 130.921875 185.992188 C 130.578125 185.769531 130.210938 185.585938 129.828125 185.445312 C 117.566406 178.289062 109.40625 165.027344 109.40625 150.25 C 109.40625 127.761719 127.761719 109.40625 150.25 109.40625 C 172.742188 109.40625 191.097656 127.761719 191.097656 150.25 C 191.097656 157.964844 189.019531 165.089844 185.445312 171.222656 C 185.199219 171.550781 184.996094 171.902344 184.824219 172.277344 C 184.65625 172.648438 184.527344 173.035156 184.441406 173.4375 C 184.351562 173.835938 184.308594 174.242188 184.304688 174.652344 C 184.304688 175.0625 184.34375 175.464844 184.425781 175.867188 C 184.511719 176.269531 184.632812 176.65625 184.800781 177.03125 C 184.964844 177.40625 185.167969 177.761719 185.40625 178.09375 C 185.644531 178.425781 185.917969 178.730469 186.21875 179.003906 C 186.523438 179.28125 186.851562 179.519531 187.207031 179.726562 C 187.5625 179.933594 187.933594 180.101562 188.320312 180.226562 C 188.710938 180.355469 189.109375 180.441406 189.515625 180.484375 C 189.925781 180.53125 190.332031 180.53125 190.738281 180.488281 C 191.148438 180.445312 191.546875 180.363281 191.9375 180.234375 C 192.324219 180.109375 192.699219 179.945312 193.054688 179.742188 C 193.410156 179.535156 193.738281 179.296875 194.042969 179.023438 C 194.347656 178.75 194.621094 178.445312 194.863281 178.113281 C 195.101562 177.785156 195.304688 177.429688 195.472656 177.054688 C 200.066406 169.183594 202.765625 160.042969 202.765625 150.25 C 202.765625 121.394531 179.109375 97.738281 150.25 97.738281 C 148.449219 97.738281 146.722656 97.738281 144.964844 97.917969 C 144.652344 95.8125 144.417969 93.75 144.417969 91.902344 C 144.417969 69.410156 162.769531 51.054688 185.261719 51.054688 Z M 136.574219 198.753906 C 144.507812 200.171875 156.472656 201.765625 172.679688 202.402344 L 153.167969 221.914062 L 141.679688 210.425781 L 141.5 210.242188 Z M 233.945312 198.753906 L 229.023438 210.242188 L 217.355469 222.09375 L 197.84375 202.402344 C 214.164062 201.78125 225.960938 200.183594 233.945312 198.753906 Z M 185.261719 206.414062 L 209.148438 230.300781 L 185.445312 254.371094 L 161.375 230.117188 Z M 154.445312 239.78125 L 177.238281 262.574219 L 168.304688 271.691406 Z M 215.894531 240.148438 L 202.402344 271.328125 L 193.648438 262.574219 Z M 185.445312 270.78125 L 197.476562 282.816406 L 185.261719 310.714844 L 173.226562 283.179688 Z M 185.445312 270.78125 "/>
</g>
<g clip-path="url(#clip4)" clip-rule="nonzero">
<path style=" stroke:none;fill-rule:nonzero;fill:rgb(32.939148%,32.939148%,32.939148%);fill-opacity:1;" d="M 99.964844 261.445312 C 99.652344 261.445312 99.339844 261.371094 99.054688 261.21875 L 77.625 249.957031 L 56.199219 261.21875 C 55.539062 261.566406 54.742188 261.507812 54.140625 261.070312 C 53.539062 260.632812 53.238281 259.890625 53.363281 259.160156 L 57.453125 235.308594 L 40.121094 218.414062 C 39.585938 217.898438 39.394531 217.121094 39.625 216.414062 C 39.855469 215.703125 40.464844 215.1875 41.203125 215.082031 L 65.160156 211.601562 L 75.875 189.902344 C 76.203125 189.234375 76.882812 188.8125 77.625 188.8125 C 78.371094 188.8125 79.050781 189.234375 79.378906 189.902344 L 90.09375 211.601562 L 114.050781 215.082031 C 114.785156 215.1875 115.398438 215.703125 115.628906 216.414062 C 115.859375 217.121094 115.667969 217.898438 115.132812 218.414062 L 97.796875 235.308594 L 101.890625 259.160156 C 102.015625 259.890625 101.714844 260.632812 101.113281 261.070312 C 100.773438 261.316406 100.367188 261.445312 99.964844 261.445312 Z M 77.625 245.796875 C 77.9375 245.796875 78.25 245.871094 78.535156 246.019531 L 97.367188 255.917969 L 93.769531 234.957031 C 93.660156 234.320312 93.871094 233.675781 94.332031 233.226562 L 109.566406 218.382812 L 88.515625 215.324219 C 87.878906 215.230469 87.328125 214.832031 87.042969 214.253906 L 77.625 195.183594 L 68.210938 214.253906 C 67.925781 214.832031 67.375 215.230469 66.738281 215.324219 L 45.6875 218.382812 L 60.921875 233.226562 C 61.382812 233.675781 61.589844 234.320312 61.484375 234.957031 L 57.886719 255.917969 L 76.71875 246.019531 C 77 245.871094 77.3125 245.796875 77.625 245.796875 Z M 77.625 245.796875 "/>
</g>
<g clip-path="url(#clip5)" clip-rule="nonzero">
<path style=" stroke:none;fill-rule:nonzero;fill:rgb(32.939148%,32.939148%,32.939148%);fill-opacity:1;" d="M 321.917969 261.445312 C 321.605469 261.445312 321.292969 261.371094 321.007812 261.21875 L 299.578125 249.957031 L 278.152344 261.21875 C 277.492188 261.566406 276.695312 261.507812 276.09375 261.070312 C 275.492188 260.632812 275.1875 259.890625 275.316406 259.160156 L 279.40625 235.308594 L 262.070312 218.414062 C 261.539062 217.898438 261.347656 217.121094 261.578125 216.414062 C 261.808594 215.703125 262.417969 215.1875 263.15625 215.082031 L 287.113281 211.601562 L 297.824219 189.902344 C 298.15625 189.234375 298.835938 188.8125 299.578125 188.8125 C 300.324219 188.8125 301.003906 189.234375 301.332031 189.902344 L 312.046875 211.601562 L 336.003906 215.082031 C 336.738281 215.1875 337.351562 215.703125 337.582031 216.414062 C 337.8125 217.121094 337.621094 217.898438 337.085938 218.414062 L 319.75 235.308594 L 323.84375 259.160156 C 323.96875 259.890625 323.667969 260.632812 323.066406 261.070312 C 322.726562 261.316406 322.320312 261.445312 321.917969 261.445312 Z M 299.578125 245.796875 C 299.890625 245.796875 300.203125 245.871094 300.488281 246.019531 L 319.320312 255.917969 L 315.722656 234.957031 C 315.613281 234.320312 315.824219 233.675781 316.285156 233.226562 L 331.519531 218.382812 L 310.464844 215.324219 C 309.828125 215.230469 309.28125 214.832031 308.996094 214.253906 L 299.578125 195.183594 L 290.164062 214.253906 C 289.878906 214.832031 289.328125 215.230469 288.691406 215.324219 L 267.640625 218.382812 L 282.875 233.226562 C 283.335938 233.675781 283.542969 234.320312 283.433594 234.957031 L 279.839844 255.917969 L 298.667969 246.019531 C 298.953125 245.871094 299.265625 245.796875 299.578125 245.796875 Z M 299.578125 245.796875 "/>
</g>
</g>
</svg>
